<svg xmlns="http://www.w3.org/2000/svg" viewBox="0 0 419.71 37.94"><defs><style>.cls-1{stroke:#fff;stroke-miterlimit:10;stroke-width:0.75px;opacity:0.32;}.cls-2{fill:#fff;}.cls-3{opacity:0.6;}.cls-4{opacity:0.8;}.cls-5{opacity:0.4;}</style></defs><title>nova white</title><g id="Layer_2" data-name="Layer 2"><g id="Layer_1-2" data-name="Layer 1"><line class="cls-1" x1="225.48" y1="1.42" x2="225.48" y2="37.92"/><path class="cls-2" d="M389.15,24.74v-9h1.36a5.66,5.66,0,0,1,1.45.14,2.18,2.18,0,0,1,.92.47,2.55,2.55,0,0,1,.6.86,2.66,2.66,0,0,1,.23,1.06,2.16,2.16,0,0,1-.74,1.65,2.12,2.12,0,0,1,1.13.86,2.55,2.55,0,0,1-.33,3.21,2.33,2.33,0,0,1-1,.62,5.6,5.6,0,0,1-1.54.17Zm1.37-5.16h.42a1.61,1.61,0,0,0,1.12-.33,1.32,1.32,0,0,0,.36-1,1.27,1.27,0,0,0-.37-1A1.5,1.5,0,0,0,391,17h-.48Zm0,3.88h.84a2.11,2.11,0,0,0,1.36-.36,1.31,1.31,0,0,0,0-2,2.3,2.3,0,0,0-1.53-.4h-.69Z"/><path class="cls-2" d="M396,19h1.31v.51A2.4,2.4,0,0,1,398,19a1.45,1.45,0,0,1,.68-.15,2.09,2.09,0,0,1,1.09.34l-.61,1.21a1.25,1.25,0,0,0-.73-.27c-.72,0-1.08.54-1.08,1.63v2.95H396Z"/><path class="cls-2" d="M404.61,19h1.32v5.7h-1.32v-.59a2.53,2.53,0,0,1-3.71-.1,3.19,3.19,0,0,1-.77-2.18,3.11,3.11,0,0,1,.77-2.14,2.46,2.46,0,0,1,1.92-.85,2.42,2.42,0,0,1,1.79.82Zm-3.13,2.83a2,2,0,0,0,.44,1.34,1.43,1.43,0,0,0,1.14.52,1.53,1.53,0,0,0,1.18-.5,2.18,2.18,0,0,0,0-2.65,1.49,1.49,0,0,0-1.17-.51,1.47,1.47,0,0,0-1.14.51A1.91,1.91,0,0,0,401.48,21.87Z"/><path class="cls-2" d="M407.6,19h1.32v.52a2.18,2.18,0,0,1,1.56-.68,2,2,0,0,1,1.55.63,2.55,2.55,0,0,1,.48,1.74v3.49h-1.32V21.56a2.06,2.06,0,0,0-.24-1.17.94.94,0,0,0-.83-.33,1,1,0,0,0-.93.44,3,3,0,0,0-.27,1.49v2.75H407.6Z"/><path class="cls-2" d="M418.38,14.85h1.33v9.89h-1.33v-.59a2.48,2.48,0,0,1-1.76.76,2.53,2.53,0,0,1-1.95-.86,3.18,3.18,0,0,1-.76-2.18,3.07,3.07,0,0,1,.76-2.13,2.47,2.47,0,0,1,1.92-.86,2.4,2.4,0,0,1,1.79.82Zm-3.13,7a2,2,0,0,0,.44,1.34,1.45,1.45,0,0,0,1.14.52,1.52,1.52,0,0,0,1.18-.5,2.14,2.14,0,0,0,0-2.65,1.49,1.49,0,0,0-1.17-.51,1.45,1.45,0,0,0-1.13.51A1.92,1.92,0,0,0,415.25,21.87Z"/><g id="Layer_2-2" data-name="Layer 2"><g id="Слой_1" data-name="Слой 1"><polygon id="_Path_" data-name=" Path " class="cls-2" points="28.12 1.88 28.12 28.07 0.08 0 0 36.61 3.93 36.61 3.93 9.62 32.24 37.94 32.24 1.88 28.12 1.88"/><path id="_Compound_Path_" data-name=" Compound Path " class="cls-2" d="M56.07.82C66.46.78,73.85,8,74,18.38c.14,10.54-7.31,18.25-17.67,18.28s-17.91-7.48-17.91-18S45.73.87,56.07.82Zm0,3.81C48.07,4.7,42.3,10.82,42.49,19c.18,8,6,13.77,13.85,13.73a13.42,13.42,0,0,0,13.59-14c0-8.27-5.86-14.21-13.88-14.13Z"/><g id="_Group_" data-name=" Group "><polygon id="_Path_2" data-name=" Path 2" class="cls-2" points="119.99 10.29 106.49 36.66 102.07 36.66 119.98 1.75 137.91 36.66 133.49 36.66 119.99 10.29"/></g><g id="_Group_2" data-name=" Group 2"><polygon id="_Path_3" data-name=" Path 3" class="cls-2" points="92.06 28.12 78.56 1.75 74.14 1.75 92.05 36.66 109.98 1.75 105.56 1.75 92.06 28.12"/></g><path class="cls-2" d="M185.81,1.51l-56.39-.08C143.11,28.66,147,36.65,163.23,36.75h0c-.33.17,18.47,0,23.5,0,9.8,0,16.67-7.58,16.67-17.33A17.77,17.77,0,0,0,185.81,1.51ZM161.94,12.15c-1.16,3.46-2.36,6.92-3.55,10.37-.49,1.42-1,2.84-1.48,4.24a1.78,1.78,0,0,1-3.46-.08c-.58-1.58-1.1-3.18-1.65-4.77l-3.22-9.4a5,5,0,0,1-.21-.76,1.45,1.45,0,0,1,1-1.8h0a1.47,1.47,0,0,1,1.87.94l0,.06c.23.59.42,1.19.61,1.79l3.43,10.46c.53-1.67,3-9.43,3.73-11.83.2-.64.45-1.26,1.21-1.42C161.59,9.65,162.43,10.7,161.94,12.15Zm10.54,9h-4.26v5.37a1.53,1.53,0,0,1-3.05.25,1,1,0,0,1,0-.25V11.89c0-1.57.35-1.93,1.89-1.92,1.92,0,3.85-.05,5.77.07A5.31,5.31,0,0,1,178,15.47c0,.12,0,.23,0,.35a5.4,5.4,0,0,1-5.47,5.33Zm21.84,4.64c0,1.38-.31,2-1.2,2.21a2,2,0,0,1-2.42-1.17c-1.66-2.75-6.15-10.19-6.87-11.34V26.28c0,1-.31,1.51-1.06,1.72a1.36,1.36,0,0,1-1.71-.88,1.31,1.31,0,0,1-.06-.27,1.61,1.61,0,0,1,0-.31V11.76A1.65,1.65,0,0,1,182.11,10a1.9,1.9,0,0,1,2.17.74A11.83,11.83,0,0,1,185.1,12c1.94,3.28,6.32,10.48,6.37,10.46V12a6.31,6.31,0,0,1,0-.87,1.33,1.33,0,0,1,1.38-1.27H193a1.29,1.29,0,0,1,1.36,1.22v.13c0,1.37,0,11.06,0,14.54Z"/><path class="cls-2" d="M172.78,12.93c-1.47-.15-3,0-4.51,0v5.4c1.53,0,3,.1,4.46,0a2.47,2.47,0,0,0,2.19-2.66,2.42,2.42,0,0,0-2.06-2.73Z"/></g></g><g class="cls-3"><path class="cls-2" d="M258.81,31.54c7.09,0,14.94-5.43,17.45-12.06l1.24-3.29c2.51-6.64-.2-8.74-6-4.68L253.37,24.16c-5.82,4.06-4.77,7.38,2.32,7.38Z"/></g><g class="cls-4"><path class="cls-2" d="M262.36,10.92c-2.92-6.46-7.72-6.46-10.66,0l-4,8.9c-3,6.45.45,11.73,7.54,11.73h3.62c7.09,0,10.5-5.28,7.57-11.75Z"/></g><g class="cls-5"><path class="cls-2" d="M279.34,21.54c6.83-1.91,7.91-.43,2.39,3.27s-15.83,6.73-22.92,6.73h-2.47c-7.09,0-7.3-1.56-.47-3.46Z"/></g><path class="cls-2" d="M298.9,12.78h3a11.1,11.1,0,0,1,2.38.23,5.08,5.08,0,0,1,1.9.89,5.48,5.48,0,0,1,1.63,2,6.07,6.07,0,0,1,.57,2.64,5.31,5.31,0,0,1-2.31,4.63,5.38,5.38,0,0,1-1.89.88,10.36,10.36,0,0,1-2.31.23h-3Zm2.24,1.93v7.64h.69a4.75,4.75,0,0,0,2.81-.76,3.22,3.22,0,0,0,1.05-1.3,4,4,0,0,0,.38-1.75,4.15,4.15,0,0,0-.37-1.74,3.44,3.44,0,0,0-1-1.33,4.62,4.62,0,0,0-2.83-.76Z"/><path class="cls-2" d="M316.47,14.71h-2.59v9.57h-2.24V14.71h-2.58V12.78h7.41Z"/><path class="cls-2" d="M324.23,13.87l-1.18,1.53a2.24,2.24,0,0,0-1.87-1,1.58,1.58,0,0,0-1.21.4,1.36,1.36,0,0,0-.38.94,1,1,0,0,0,.36.78,4.61,4.61,0,0,0,1.38.65,7,7,0,0,1,2.33,1.16,3.08,3.08,0,0,1,1,2.41,3.56,3.56,0,0,1-1.11,2.73,4,4,0,0,1-2.89,1.05,4.57,4.57,0,0,1-4-2.18L318.14,21a2.51,2.51,0,0,0,1.05,1.15,2.67,2.67,0,0,0,1.36.38,1.83,1.83,0,0,0,1.28-.44,1.45,1.45,0,0,0,.5-1.14,1.39,1.39,0,0,0-.45-1,5.66,5.66,0,0,0-1.77-.84,5.68,5.68,0,0,1-1.92-1,2.68,2.68,0,0,1-.91-2.14,3.35,3.35,0,0,1,1-2.39,3.61,3.61,0,0,1,2.74-1A4.37,4.37,0,0,1,324.23,13.87Z"/><path class="cls-2" d="M330.19,16.57a4.29,4.29,0,0,1,3,1.05,3.78,3.78,0,0,1,1.26,2.93,3.76,3.76,0,0,1-1.26,2.92,4.87,4.87,0,0,1-6,0,3.78,3.78,0,0,1-1.25-2.92,3.8,3.8,0,0,1,1.25-2.93A4.29,4.29,0,0,1,330.19,16.57ZM328.69,22a2.12,2.12,0,0,0,3,0,2.09,2.09,0,0,0,.61-1.49,2.11,2.11,0,0,0-.61-1.5,2.12,2.12,0,0,0-3,0,2.1,2.1,0,0,0-.6,1.5A2.08,2.08,0,0,0,328.69,22Z"/><path class="cls-2" d="M341.71,17v2.07a2.44,2.44,0,0,0-1.73-.66,2,2,0,0,0-1.55.62,2.11,2.11,0,0,0-.55,1.49,2,2,0,0,0,.61,1.51,2.11,2.11,0,0,0,1.56.61,2.4,2.4,0,0,0,1.66-.66v2.05a4.29,4.29,0,0,1-1.93.47,4,4,0,0,1-2.88-1.09,3.72,3.72,0,0,1-1.19-2.86,3.84,3.84,0,0,1,1.29-3,3.88,3.88,0,0,1,2.69-1A4.6,4.6,0,0,1,341.71,17Z"/><path class="cls-2" d="M343.46,14.55a1.22,1.22,0,0,1-.37-.89,1.2,1.2,0,0,1,.37-.89,1.24,1.24,0,0,1,1.77,0,1.2,1.2,0,0,1,.37.89,1.25,1.25,0,0,1-2.14.89Zm-.17,2.26h2.11v7.47h-2.11Z"/><path class="cls-2" d="M353.12,17.78v-1h2.1v7.47h-2.1v-1a2.65,2.65,0,0,1-2.29,1.21,3.56,3.56,0,0,1-2.75-1.16A4,4,0,0,1,347,20.54a4,4,0,0,1,1-2.83,3.44,3.44,0,0,1,2.67-1.14A2.65,2.65,0,0,1,353.12,17.78ZM352.74,19a2.1,2.1,0,0,0-3,0,2.07,2.07,0,0,0-.59,1.5,2.12,2.12,0,0,0,.59,1.51,2.1,2.1,0,0,0,3,0,2.12,2.12,0,0,0,.59-1.51A2.07,2.07,0,0,0,352.74,19Z"/><path class="cls-2" d="M357.22,11.71h2.11V24.28h-2.11Z"/><path class="cls-2" d="M361.49,14.55a1.22,1.22,0,0,1-.37-.89,1.26,1.26,0,0,1,1.26-1.26,1.22,1.22,0,0,1,.89.37,1.24,1.24,0,0,1,.37.89,1.26,1.26,0,0,1-1.26,1.26A1.24,1.24,0,0,1,361.49,14.55Zm-.16,2.26h2.1v7.47h-2.1Z"/><path class="cls-2" d="M372.57,16.81l-4.24,5.68h3.94v1.79h-7.63l4.24-5.67h-3.59v-1.8Z"/><path class="cls-2" d="M379.17,21.88l1.93.31a3.24,3.24,0,0,1-.32.61,5.16,5.16,0,0,1-.61.75,3,3,0,0,1-1.12.7,4.51,4.51,0,0,1-1.62.27,4,4,0,0,1-2.86-1.05,3.84,3.84,0,0,1-1.18-2.92,4,4,0,0,1,1.14-2.93,3.85,3.85,0,0,1,2.81-1.05,3.57,3.57,0,0,1,2.92,1.23,4.46,4.46,0,0,1,.89,2.93v.17h-5.58a2.11,2.11,0,0,0,.36,1.26,1.73,1.73,0,0,0,1.5.7A1.87,1.87,0,0,0,379.17,21.88Zm-3.53-2.33h3.53a1.68,1.68,0,0,0-.63-1.11,1.84,1.84,0,0,0-1.15-.39,1.79,1.79,0,0,0-1.12.4A1.71,1.71,0,0,0,375.64,19.55Z"/></g></g></svg>